<svg id="p_1" data-name="p 1" xmlns="http://www.w3.org/2000/svg" xmlns:xlink="http://www.w3.org/1999/xlink"
     viewBox="0 0 507 428.43">
    <defs>
        <style>
            .cls-1,.cls-3,.cls-6{fill:none;}.cls-1{clip-rule:evenodd;}.cls-2{fill:#d0cece;}.cls-2,.cls-5{fill-rule:evenodd;}.cls-3{stroke:#2c2c2c;}.cls-3,.cls-6{stroke-miterlimit:8;stroke-width:15px;}.cls-4{clip-path:url(#clip-path);}.cls-5{fill:#fff;}.cls-6{stroke:#000;}.cls-7{fill:#1a1a1a;}
        </style>
        <clipPath id="clip-path" transform="translate(-1.65 -30.08)">
            <polygon class="cls-1" points="1.56 324.24 508.68 324.24 508.68 30 1.56 30 1.56 324.24 1.56 324.24"/>
        </clipPath>
    </defs>
    <path class="cls-2"
          d="M9.16,182.13A52.44,52.44,0,0,1,10.08,171,49.22,49.22,0,0,1,20.2,149.28a39,39,0,0,1,14.85-12,33.22,33.22,0,0,1,14.58-2.67,21.36,21.36,0,0,1,9.66,2.18,20,20,0,0,1,8.28,7.61,21.8,21.8,0,0,1,3.22,9.23,24.29,24.29,0,0,1-1.84,12c-1.33,3.4-3,7.61-6.44,9.23-4.87,2.3-8.21-2.95-12-.57-3.43,2.18-4.45,8.95-3.5,13.79,1.34,6.82,6.7,10.11,9.37,11.76,3.27,2,6.19,2.54,9.57,3.17a42,42,0,0,0,10.51.45,43.51,43.51,0,0,0,16.84-4.29c5.22-2.56,8.61-5.57,12.24-8.81a94.4,94.4,0,0,0,12.55-13.83c7.24-9.62,6.71-12,14.72-23.35A91.59,91.59,0,0,1,144.34,139c3-2.93,8.13-7.91,15.17-11.41,4.25-2.12,9.61-3.87,22.53-4.36a178.08,178.08,0,0,1,33.57,2.18c13.41,2,14.08,3,33.57,6.51,13.56,2.42,20.34,3.64,29,4.35,18.19,1.49,27.3,2.22,37.7-1.08,10.62-3.37,20.41-12.2,40-29.87A327.79,327.79,0,0,0,379.76,80.9c3.7-4.23,5.2-7.43,9.66-12,7.26-7.36,10.22-7.4,11.33-12,.82-3.46.36-8.48,1.08-15.87.07-.75.26-2.44,1.27-3.15.47-.34,1.36-.63,3.12.23a8.83,8.83,0,0,1,2.36,1.68c3.65,4,4.92,7.83,7.76,9.38a6.56,6.56,0,0,0,5.36.22c6.92,0,12.89.11,17.31.19a42.55,42.55,0,0,1,7.87.3c2,.35,2.91.71,5.89,1.28s4,.55,5.92.84c5.11.77,10.29,1.54,14.27,5.55,1.56,1.59,2.15,2.85,4.49,4.62.72.55,1.15.79,4.56,2.86s3.24,2.08,3.89,2.38c4.2,2,7,2,10.06,5.39a19.56,19.56,0,0,1,3.87,6.76c1.05,3,1.14,6.06,1.29,12.16a23.48,23.48,0,0,1-.38,6.18c-.48,2.24-1.05,2.93-1.91,5.23-1.7,4.51-1,5.9-2.31,9.78-.31,1-1.73,5.13-4.13,7.61-3.18,3.27-6.73,2.18-15.85,2-10.43-.24-15.65-.38-20.93,2.4-3.12,1.65-5.7,3.89-10,7.59a82.78,82.78,0,0,0-8.42,8.17c-2.46,3-4.56,6.61-9.19,23.9s-6.21,16.74-8.12,30.53c-1.16,8.38-2.07,12.49-1.95,15.05.12,2.83-.74,5.66-.48,8.48,0,.25.12,1.1-.29,1.47-.17.16-.4.12-1.14.08-.38,0-.77,0-1.15-.06a27.72,27.72,0,0,0-4.6.26c-2,.25-3.66.45-6,1-1.62.34-1.79.47-5.36,1.44-4,1.08-4.11,1-5.92,1.55a78.23,78.23,0,0,0-7.74,2.81c-4.53,1.79-6.84,2.92-9,5.24-.23.25-1.48,1.63-1.29,2s1.72-.61,3.63-1.59c1.41-.73,3-1.34,6.14-2.58a77.64,77.64,0,0,1,9.09-2.93,86,86,0,0,1,9-2.16,74.38,74.38,0,0,1,9.47-1,69.7,69.7,0,0,1,8.12.13,62,62,0,0,1,14.44,2.48,62.68,62.68,0,0,1,12.81,5.53,67.68,67.68,0,0,1,8.8,6,15.24,15.24,0,0,1,6.69,8.58c1.11,3.52,1.69,9.52-1.13,12.9-1.64,1.95-3.88,2.32-8.33,3a40.08,40.08,0,0,1-6.7.45c-5.63.06-5,.38-12.62.67-11.15.4-14.48-.25-23.91.22-1.79.08-3.29.12-5.54.22-7.51.33-11.24.49-13.7.82-.52.06-3,.38-6.56.79a.22.22,0,0,0-.11,0c-1.08.12-6,.69-7.12.84-11.36,1.34-15.31,1.93-18.71,1.26a15.29,15.29,0,0,1-2.45-.72,20.16,20.16,0,0,1-7.62-4.35,14.76,14.76,0,0,1-3.46-4.41,18.2,18.2,0,0,1-1.52-4.62,35.2,35.2,0,0,1-.41-6c-.12-4.29,0-7.32,0-8.34s.08-2.32.19-4.06c.19-3,.43-4.56,1-9.2,1.26-9.82,1-9.48,1.62-12.73a29.24,29.24,0,0,0,.74-4.72,24.53,24.53,0,0,0,0-3.19,28.16,28.16,0,0,0-1.22-6.69c-.74-2.4-1.33-3.12-4.13-8.42a71.6,71.6,0,0,1-3.48-6.92,22.68,22.68,0,0,1-.57-11.19c1.76-7.81,8.09-11.47,7.46-12.54-.38-.64-2.74.42-4.34,1.64-2.39,1.83-3.5,4.36-4.56,6.84a20.73,20.73,0,0,0-1.86,6.1,21.35,21.35,0,0,0,1,9,36.28,36.28,0,0,0,3,7.12c2.27,4.49,3.1,4.8,4.37,8.3a27.48,27.48,0,0,1,1.43,5.93,20.83,20.83,0,0,1,.12,4.07,25,25,0,0,1-.57,3.17c-.72,4.07-.58,5-1.34,10.3-.43,3.05-.55,3.23-.76,5.3-.08.76-.15,1.57-.38,5.66s-.34,6.06-.36,6.79c0,2.34-.39,4.7-.26,7,.09,1.44.31,3.44-.53,4.07a2.92,2.92,0,0,1-.84.24,20.5,20.5,0,0,1-2.12.31l-2,.18-1.79.41c-.35.08-1,.22-1.79.38-1.28.27-2.27.45-3,.59-3.86.73-7.87,1.57-11.09,2.12A124.9,124.9,0,0,1,303.9,257c-3.79.25-8.28.39-13.36.23h0c-5.32,0-12.34.34-12.34.34a61.16,61.16,0,0,0-10.81-.24c-2.05.14-6,.53-6.94-1.51-.17-.34-.31-.83-.91-2.42a23.08,23.08,0,0,0-1-2.15,41.12,41.12,0,0,0-2.1-3.85,23.85,23.85,0,0,0-5.73-5.43c-7-4.59-14.39-3.31-23.72-1.58-7.33,1.36-12,3.23-22.38,4.19-3.58.32-6.88.46-7.16-.7s3.36-2.68,9.55-7.79a125.39,125.39,0,0,0,12.54-12.32c.25-.29,1.51-1.83,3.47-3.93a37,37,0,0,0,4.75-6.36,27,27,0,0,0,2.4-4.74c1.86-5.15,1.1-10.13.57-13.67a37.17,37.17,0,0,0-2.47-8.93c-2.34-5.47-5.78-9.5-6.16-9.17s5.23,7.08,6.39,17.8a28.67,28.67,0,0,1-1.14,12.67,23.75,23.75,0,0,1-5.71,9.17,53.59,53.59,0,0,1-4.34,5.12,56.13,56.13,0,0,1-5,4.58c-8.16,6.92-7.18,6.47-10,8.62,0,0-.83.64-8.23,5.68,0,0-1.84,3.48-1.14,5.39.5,1.34,2.16,1.69,3.21,1.89,8,1.49,16.21,0,17.57-.26,3.12-.59,2.26-.49,6.63-1.35,10.31-2,14.06-2.34,15.3-2.42,7.11-.55,9.64.27,11.42,1.08a10.57,10.57,0,0,1,5.25,4.31c2.49,4.32,1.24,9.71.91,11.07a15.41,15.41,0,0,1-2.29,5.39c-2.51,3.64-6,4.68-9.37,5.67-.84.25-2.65.71-8,1.08s-9.16.28-10.06.26c-4.94-.08-9.22.13-17.81.55-5.89.29-10.78.74-20.56,1.63-12.67,1.16-15.78,1.67-19.4-1.08a18.23,18.23,0,0,1-6.62-11.06c-1-6.18,3.42-10.5,2.51-18.35a8.39,8.39,0,0,0-1.7-4.57c-.45-.51-1.33-1.31-4.81-2a33.22,33.22,0,0,0-6.28-.67,55.36,55.36,0,0,0-7,.27,60.92,60.92,0,0,0-9.93,1.89c-6.82,1.87-10.88,3.9-15.31,5.67a87.18,87.18,0,0,1-25.11,6,83.21,83.21,0,0,1-18.27-.85c-8.38-1.06-14.7-1.91-22.6-5.13A55.58,55.58,0,0,1,27.81,229a73.72,73.72,0,0,1-9.37-14.57A91.29,91.29,0,0,1,11.81,198a61.41,61.41,0,0,1-2.65-15.86Z"
          transform="translate(-1.65 -30.08)"/>
    <path class="cls-3"
          d="M9.16,182.13A52.44,52.44,0,0,1,10.08,171,49.22,49.22,0,0,1,20.2,149.28a39,39,0,0,1,14.85-12,33.22,33.22,0,0,1,14.58-2.67,21.36,21.36,0,0,1,9.66,2.18,20,20,0,0,1,8.28,7.61,21.8,21.8,0,0,1,3.22,9.23,24.29,24.29,0,0,1-1.84,12c-1.33,3.4-3,7.61-6.44,9.23-4.87,2.3-8.21-2.95-12-.57-3.43,2.18-4.45,8.95-3.5,13.79,1.34,6.82,6.7,10.11,9.37,11.76,3.27,2,6.19,2.54,9.57,3.17a42,42,0,0,0,10.51.45,43.51,43.51,0,0,0,16.84-4.29c5.22-2.56,8.61-5.57,12.24-8.81a94.4,94.4,0,0,0,12.55-13.83c7.24-9.62,6.71-12,14.72-23.35A91.59,91.59,0,0,1,144.34,139c3-2.93,8.13-7.91,15.17-11.41,4.25-2.12,9.61-3.87,22.53-4.36a178.08,178.08,0,0,1,33.57,2.18c13.41,2,14.08,3,33.57,6.51,13.56,2.42,20.34,3.64,29,4.35,18.19,1.49,27.3,2.22,37.7-1.08,10.62-3.37,20.41-12.2,40-29.87A327.79,327.79,0,0,0,379.76,80.9c3.7-4.23,5.2-7.43,9.66-12,7.26-7.36,10.22-7.4,11.33-12,.82-3.46.36-8.48,1.08-15.87.07-.75.26-2.44,1.27-3.15.47-.34,1.36-.63,3.12.23a8.83,8.83,0,0,1,2.36,1.68c3.65,4,4.92,7.83,7.76,9.38a6.56,6.56,0,0,0,5.36.22c6.92,0,12.89.11,17.31.19a42.55,42.55,0,0,1,7.87.3c2,.35,2.91.71,5.89,1.28s4,.55,5.92.84c5.11.77,10.29,1.54,14.27,5.55,1.56,1.59,2.15,2.85,4.49,4.62.72.55,1.15.79,4.56,2.86s3.24,2.08,3.89,2.38c4.2,2,7,2,10.06,5.39a19.56,19.56,0,0,1,3.87,6.76c1.05,3,1.14,6.06,1.29,12.16a23.48,23.48,0,0,1-.38,6.18c-.48,2.24-1.05,2.93-1.91,5.23-1.7,4.51-1,5.9-2.31,9.78-.31,1-1.73,5.13-4.13,7.61-3.18,3.27-6.73,2.18-15.85,2-10.43-.24-15.65-.38-20.93,2.4-3.12,1.65-5.7,3.89-10,7.59a82.78,82.78,0,0,0-8.42,8.17c-2.46,3-4.56,6.61-9.19,23.9s-6.21,16.74-8.12,30.53c-1.16,8.38-2.07,12.49-1.95,15.05.12,2.83-.74,5.66-.48,8.48,0,.25.12,1.1-.29,1.47-.17.16-.4.12-1.14.08-.38,0-.77,0-1.15-.06a27.72,27.72,0,0,0-4.6.26c-2,.25-3.66.45-6,1-1.62.34-1.79.47-5.36,1.44-4,1.08-4.11,1-5.92,1.55a78.23,78.23,0,0,0-7.74,2.81c-4.53,1.79-6.84,2.92-9,5.24-.23.25-1.48,1.63-1.29,2s1.72-.61,3.63-1.59c1.41-.73,3-1.34,6.14-2.58a77.64,77.64,0,0,1,9.09-2.93,86,86,0,0,1,9-2.16,74.38,74.38,0,0,1,9.47-1,69.7,69.7,0,0,1,8.12.13,62,62,0,0,1,14.44,2.48,62.68,62.68,0,0,1,12.81,5.53,67.68,67.68,0,0,1,8.8,6,15.24,15.24,0,0,1,6.69,8.58c1.11,3.52,1.69,9.52-1.13,12.9-1.64,1.95-3.88,2.32-8.33,3a40.08,40.08,0,0,1-6.7.45c-5.63.06-5,.38-12.62.67-11.15.4-14.48-.25-23.91.22-1.79.08-3.29.12-5.54.22-7.51.33-11.24.49-13.7.82-.52.06-3,.38-6.56.79a.22.22,0,0,0-.11,0c-1.08.12-6,.69-7.12.84-11.36,1.34-15.31,1.93-18.71,1.26a15.29,15.29,0,0,1-2.45-.72,20.16,20.16,0,0,1-7.62-4.35,14.76,14.76,0,0,1-3.46-4.41,18.2,18.2,0,0,1-1.52-4.62,35.2,35.2,0,0,1-.41-6c-.12-4.29,0-7.32,0-8.34s.08-2.32.19-4.06c.19-3,.43-4.56,1-9.2,1.26-9.82,1-9.48,1.62-12.73a29.24,29.24,0,0,0,.74-4.72,24.53,24.53,0,0,0,0-3.19,28.16,28.16,0,0,0-1.22-6.69c-.74-2.4-1.33-3.12-4.13-8.42a71.6,71.6,0,0,1-3.48-6.92,22.68,22.68,0,0,1-.57-11.19c1.76-7.81,8.09-11.47,7.46-12.54-.38-.64-2.74.42-4.34,1.64-2.39,1.83-3.5,4.36-4.56,6.84a20.73,20.73,0,0,0-1.86,6.1,21.35,21.35,0,0,0,1,9,36.28,36.28,0,0,0,3,7.12c2.27,4.49,3.1,4.8,4.37,8.3a27.48,27.48,0,0,1,1.43,5.93,20.83,20.83,0,0,1,.12,4.07,25,25,0,0,1-.57,3.17c-.72,4.07-.58,5-1.34,10.3-.43,3.05-.55,3.23-.76,5.3-.08.76-.15,1.57-.38,5.66s-.34,6.06-.36,6.79c0,2.34-.39,4.7-.26,7,.09,1.44.31,3.44-.53,4.07a2.92,2.92,0,0,1-.84.24,20.5,20.5,0,0,1-2.12.31l-2,.18-1.79.41c-.35.08-1,.22-1.79.38-1.28.27-2.27.45-3,.59-3.86.73-7.87,1.57-11.09,2.12A124.9,124.9,0,0,1,303.9,257c-3.79.25-8.28.39-13.36.23h0c-5.32,0-12.34.34-12.34.34a61.16,61.16,0,0,0-10.81-.24c-2.05.14-6,.53-6.94-1.51-.17-.34-.31-.83-.91-2.42a23.08,23.08,0,0,0-1-2.15,41.12,41.12,0,0,0-2.1-3.85,23.85,23.85,0,0,0-5.73-5.43c-7-4.59-14.39-3.31-23.72-1.58-7.33,1.36-12,3.23-22.38,4.19-3.58.32-6.88.46-7.16-.7s3.36-2.68,9.55-7.79a125.39,125.39,0,0,0,12.54-12.32c.25-.29,1.51-1.83,3.47-3.93a37,37,0,0,0,4.75-6.36,27,27,0,0,0,2.4-4.74c1.86-5.15,1.1-10.13.57-13.67a37.17,37.17,0,0,0-2.47-8.93c-2.34-5.47-5.78-9.5-6.16-9.17s5.23,7.08,6.39,17.8a28.67,28.67,0,0,1-1.14,12.67,23.75,23.75,0,0,1-5.71,9.17,53.59,53.59,0,0,1-4.34,5.12,56.13,56.13,0,0,1-5,4.58c-8.16,6.92-7.18,6.47-10,8.62,0,0-.83.64-8.23,5.68,0,0-1.84,3.48-1.14,5.39.5,1.34,2.16,1.69,3.21,1.89,8,1.49,16.21,0,17.57-.26,3.12-.59,2.26-.49,6.63-1.35,10.31-2,14.06-2.34,15.3-2.42,7.11-.55,9.64.27,11.42,1.08a10.57,10.57,0,0,1,5.25,4.31c2.49,4.32,1.24,9.71.91,11.07a15.41,15.41,0,0,1-2.29,5.39c-2.51,3.64-6,4.68-9.37,5.67-.84.25-2.65.71-8,1.08s-9.16.28-10.06.26c-4.94-.08-9.22.13-17.81.55-5.89.29-10.78.74-20.56,1.63-12.67,1.16-15.78,1.67-19.4-1.08a18.23,18.23,0,0,1-6.62-11.06c-1-6.18,3.42-10.5,2.51-18.35a8.39,8.39,0,0,0-1.7-4.57c-.45-.51-1.33-1.31-4.81-2a33.22,33.22,0,0,0-6.28-.67,55.36,55.36,0,0,0-7,.27,60.92,60.92,0,0,0-9.93,1.89c-6.82,1.87-10.88,3.9-15.31,5.67a87.18,87.18,0,0,1-25.11,6,83.21,83.21,0,0,1-18.27-.85c-8.38-1.06-14.7-1.91-22.6-5.13A55.58,55.58,0,0,1,27.81,229a73.72,73.72,0,0,1-9.37-14.57A91.29,91.29,0,0,1,11.81,198a61.41,61.41,0,0,1-2.65-15.86Z"
          transform="translate(-1.65 -30.08)"/>
    <g class="cls-4">
        <path class="cls-5"
              d="M9.16,224.55a50.74,50.74,0,0,1,.92-11A48.09,48.09,0,0,1,20.2,192.23a38.77,38.77,0,0,1,14.85-11.81,33.63,33.63,0,0,1,14.58-2.62,21.53,21.53,0,0,1,9.66,2.14,20,20,0,0,1,8.28,7.48,21.31,21.31,0,0,1,3.22,9.09A23.57,23.57,0,0,1,69,208.28c-1.33,3.34-3,7.48-6.44,9.08-4.87,2.27-8.21-2.9-12-.56-3.43,2.14-4.45,8.81-3.5,13.57,1.34,6.71,6.7,9.95,9.37,11.57,3.27,2,6.19,2.5,9.57,3.12a43.29,43.29,0,0,0,10.51.44,44.23,44.23,0,0,0,16.84-4.22c5.22-2.52,8.61-5.48,12.24-8.67A93.36,93.36,0,0,0,118.13,219c7.24-9.46,6.71-11.78,14.72-23a90.51,90.51,0,0,1,11.49-13.89c3-2.88,8.13-7.79,15.17-11.23,4.25-2.08,9.61-3.8,22.53-4.28a180.35,180.35,0,0,1,33.57,2.14c13.41,2,14.08,3,33.57,6.4,13.56,2.39,20.34,3.59,29,4.29,18.19,1.46,27.3,2.18,37.7-1.06,10.62-3.33,20.41-12,40-29.4a325,325,0,0,0,23.91-24.06c3.7-4.16,5.2-7.3,9.66-11.77,7.26-7.24,10.22-7.28,11.33-11.81.82-3.4.36-8.34,1.08-15.61.07-.74.26-2.4,1.27-3.1.47-.34,1.36-.62,3.12.22a8.71,8.71,0,0,1,2.36,1.66c3.65,3.89,4.92,7.71,7.76,9.23a6.68,6.68,0,0,0,5.36.22c6.92,0,12.89.1,17.31.18a43.45,43.45,0,0,1,7.87.3c2,.34,2.91.7,5.89,1.26s4,.54,5.92.82C463.8,97.3,469,98.06,473,102c1.56,1.56,2.15,2.8,4.49,4.54.72.54,1.15.78,4.56,2.82s3.24,2,3.89,2.34c4.2,1.92,7,2,10.06,5.31a19.1,19.1,0,0,1,3.87,6.64c1.05,3,1.14,6,1.29,12a22.72,22.72,0,0,1-.38,6.08c-.48,2.2-1.05,2.88-1.91,5.15-1.7,4.44-1,5.8-2.31,9.62-.31.94-1.73,5.05-4.13,7.49-3.18,3.22-6.73,2.14-15.85,1.92-10.43-.24-15.65-.38-20.93,2.36-3.12,1.62-5.7,3.82-10,7.47a82.41,82.41,0,0,0-8.42,8c-2.46,2.9-4.56,6.51-9.19,23.52s-6.21,16.47-8.12,30c-1.16,8.24-2.07,12.29-1.95,14.81.12,2.78-.74,5.56-.48,8.34,0,.24.12,1.08-.29,1.44-.17.16-.4.12-1.14.08-.38,0-.77,0-1.15-.06a27.72,27.72,0,0,0-4.6.26c-2,.24-3.66.44-6,.94-1.62.34-1.79.46-5.36,1.43-4,1.06-4.11,1-5.92,1.52a81.41,81.41,0,0,0-7.74,2.76c-4.53,1.76-6.84,2.88-9,5.16-.23.24-1.48,1.6-1.29,1.92s1.72-.6,3.63-1.56c1.41-.72,3-1.32,6.14-2.54a80.77,80.77,0,0,1,9.09-2.88,88.92,88.92,0,0,1,9-2.12,73.57,73.57,0,0,1,17.59-.88,61.12,61.12,0,0,1,27.25,7.88,67.07,67.07,0,0,1,8.8,5.89,15.06,15.06,0,0,1,6.69,8.44c1.11,3.46,1.69,9.37-1.13,12.69-1.64,1.92-3.88,2.28-8.33,3a41,41,0,0,1-6.7.44c-5.63.06-5,.38-12.62.66-11.15.4-14.48-.24-23.91.22-1.79.08-3.29.12-5.54.22-7.51.32-11.24.48-13.7.8-.52.06-3,.38-6.56.78a.22.22,0,0,0-.11,0l-7.12.82c-11.36,1.33-15.31,1.91-18.71,1.25a16,16,0,0,1-2.45-.7,20.57,20.57,0,0,1-7.62-4.29,14.58,14.58,0,0,1-3.46-4.34,17.72,17.72,0,0,1-1.52-4.54,34,34,0,0,1-.41-5.89c-.12-4.22,0-7.2,0-8.2s.08-2.28.19-4c.19-2.92.43-4.48,1-9,1.26-9.67,1-9.33,1.62-12.53a28.3,28.3,0,0,0,.74-4.64,23.91,23.91,0,0,0,0-3.15,27.28,27.28,0,0,0-1.22-6.58c-.74-2.36-1.33-3.06-4.13-8.29a70.23,70.23,0,0,1-3.48-6.8,22,22,0,0,1-.57-11c1.76-7.68,8.09-11.29,7.46-12.35-.38-.62-2.74.42-4.34,1.62-2.39,1.81-3.5,4.29-4.56,6.73a20.15,20.15,0,0,0-1.86,6,20.69,20.69,0,0,0,1,8.85,35.11,35.11,0,0,0,3,7c2.27,4.43,3.1,4.73,4.37,8.17a26.69,26.69,0,0,1,1.43,5.84,20.22,20.22,0,0,1,.12,4,24.49,24.49,0,0,1-.57,3.12c-.72,4-.58,4.88-1.34,10.13-.43,3-.55,3.18-.76,5.22-.08.74-.15,1.54-.38,5.56s-.34,6-.36,6.69c0,2.3-.39,4.62-.26,6.92.09,1.42.31,3.38-.53,4a2.92,2.92,0,0,1-.84.24,18,18,0,0,1-2.12.3l-2,.18-1.79.41c-.35.08-1,.22-1.79.38l-3,.58c-3.86.72-7.87,1.54-11.09,2.08a126.44,126.44,0,0,1-13.34,1.46c-3.79.24-8.28.38-13.36.22h0c-5.32,0-12.34.34-12.34.34a62.14,62.14,0,0,0-10.81-.24c-2.05.14-6,.52-6.94-1.48-.17-.34-.31-.82-.91-2.38-.22-.58-.52-1.26-1-2.13a39.46,39.46,0,0,0-2.1-3.78,23.57,23.57,0,0,0-5.73-5.34c-7-4.52-14.39-3.26-23.72-1.56-7.33,1.34-12,3.18-22.38,4.12-3.58.32-6.88.46-7.16-.68s3.36-2.64,9.55-7.67a124.66,124.66,0,0,0,12.54-12.12c.25-.28,1.51-1.81,3.47-3.87a36.69,36.69,0,0,0,4.75-6.26,26.23,26.23,0,0,0,2.4-4.66c1.86-5.07,1.1-10,.57-13.45a36,36,0,0,0-2.47-8.79c-2.34-5.38-5.78-9.35-6.16-9s5.23,7,6.39,17.52a27.8,27.8,0,0,1-1.14,12.47,23.3,23.3,0,0,1-5.71,9,53.14,53.14,0,0,1-4.34,5,55.16,55.16,0,0,1-5,4.51c-8.16,6.8-7.18,6.36-10,8.48,0,0-.83.62-8.23,5.59,0,0-1.84,3.42-1.14,5.3.5,1.32,2.16,1.66,3.21,1.86a53.13,53.13,0,0,0,17.57-.26c3.12-.58,2.26-.48,6.63-1.32,10.31-2,14.06-2.3,15.3-2.38,7.11-.54,9.64.26,11.42,1.06a10.55,10.55,0,0,1,5.25,4.24c2.49,4.25,1.24,9.55.91,10.89a14.93,14.93,0,0,1-2.29,5.3c-2.51,3.59-6,4.61-9.37,5.59a37.94,37.94,0,0,1-8,1.06c-5.22.34-9.16.28-10.06.26-4.94-.08-9.22.12-17.81.54-5.89.28-10.78.72-20.56,1.6-12.67,1.14-15.78,1.64-19.4-1.06a17.94,17.94,0,0,1-6.62-10.89c-1-6.08,3.42-10.32,2.51-18a8.18,8.18,0,0,0-1.7-4.5c-.45-.5-1.33-1.28-4.81-2a33.12,33.12,0,0,0-6.28-.66,58.3,58.3,0,0,0-7,.26,62.77,62.77,0,0,0-9.93,1.86c-6.82,1.84-10.88,3.84-15.31,5.58a88.52,88.52,0,0,1-25.11,5.88,84.5,84.5,0,0,1-18.27-.84c-8.38-1-14.7-1.88-22.6-5a55.59,55.59,0,0,1-22.82-15.67,72.41,72.41,0,0,1-9.37-14.33,89.25,89.25,0,0,1-6.63-16.19,59.62,59.62,0,0,1-2.65-15.61Z"
              transform="translate(-1.65 -30.08)"/>
        <path class="cls-6"
              d="M9.16,224.55a50.74,50.74,0,0,1,.92-11A48.09,48.09,0,0,1,20.2,192.23a38.77,38.77,0,0,1,14.85-11.81,33.63,33.63,0,0,1,14.58-2.62,21.53,21.53,0,0,1,9.66,2.14,20,20,0,0,1,8.28,7.48,21.31,21.31,0,0,1,3.22,9.09A23.57,23.57,0,0,1,69,208.28c-1.33,3.34-3,7.48-6.44,9.08-4.87,2.27-8.21-2.9-12-.56-3.43,2.14-4.45,8.81-3.5,13.57,1.34,6.71,6.7,9.95,9.37,11.57,3.27,2,6.19,2.5,9.57,3.12a43.29,43.29,0,0,0,10.51.44,44.23,44.23,0,0,0,16.84-4.22c5.22-2.52,8.61-5.48,12.24-8.67A93.36,93.36,0,0,0,118.13,219c7.24-9.46,6.71-11.78,14.72-23a90.51,90.51,0,0,1,11.49-13.89c3-2.88,8.13-7.79,15.17-11.23,4.25-2.08,9.61-3.8,22.53-4.28a180.35,180.35,0,0,1,33.57,2.14c13.41,2,14.08,3,33.57,6.4,13.56,2.39,20.34,3.59,29,4.29,18.19,1.46,27.3,2.18,37.7-1.06,10.62-3.33,20.41-12,40-29.4a325,325,0,0,0,23.91-24.06c3.7-4.16,5.2-7.3,9.66-11.77,7.26-7.24,10.22-7.28,11.33-11.81.82-3.4.36-8.34,1.08-15.61.07-.74.26-2.4,1.27-3.1.47-.34,1.36-.62,3.12.22a8.71,8.71,0,0,1,2.36,1.66c3.65,3.89,4.92,7.71,7.76,9.23a6.68,6.68,0,0,0,5.36.22c6.92,0,12.89.1,17.31.18a43.45,43.45,0,0,1,7.87.3c2,.34,2.91.7,5.89,1.26s4,.54,5.92.82C463.8,97.3,469,98.06,473,102c1.56,1.56,2.15,2.8,4.49,4.54.72.54,1.15.78,4.56,2.82s3.24,2,3.89,2.34c4.2,1.92,7,2,10.06,5.31a19.1,19.1,0,0,1,3.87,6.64c1.05,3,1.14,6,1.29,12a22.72,22.72,0,0,1-.38,6.08c-.48,2.2-1.05,2.88-1.91,5.15-1.7,4.44-1,5.8-2.31,9.62-.31.94-1.73,5.05-4.13,7.49-3.18,3.22-6.73,2.14-15.85,1.92-10.43-.24-15.65-.38-20.93,2.36-3.12,1.62-5.7,3.82-10,7.47a82.41,82.41,0,0,0-8.42,8c-2.46,2.9-4.56,6.51-9.19,23.52s-6.21,16.47-8.12,30c-1.16,8.24-2.07,12.29-1.95,14.81.12,2.78-.74,5.56-.48,8.34,0,.24.12,1.08-.29,1.44-.17.16-.4.12-1.14.08-.38,0-.77,0-1.15-.06a27.72,27.72,0,0,0-4.6.26c-2,.24-3.66.44-6,.94-1.62.34-1.79.46-5.36,1.43-4,1.06-4.11,1-5.92,1.52a81.41,81.41,0,0,0-7.74,2.76c-4.53,1.76-6.84,2.88-9,5.16-.23.24-1.48,1.6-1.29,1.92s1.72-.6,3.63-1.56c1.41-.72,3-1.32,6.14-2.54a80.77,80.77,0,0,1,9.09-2.88,88.92,88.92,0,0,1,9-2.12,73.57,73.57,0,0,1,17.59-.88,61.12,61.12,0,0,1,27.25,7.88,67.07,67.07,0,0,1,8.8,5.89,15.06,15.06,0,0,1,6.69,8.44c1.11,3.46,1.69,9.37-1.13,12.69-1.64,1.92-3.88,2.28-8.33,3a41,41,0,0,1-6.7.44c-5.63.06-5,.38-12.62.66-11.15.4-14.48-.24-23.91.22-1.79.08-3.29.12-5.54.22-7.51.32-11.24.48-13.7.8-.52.06-3,.38-6.56.78a.22.22,0,0,0-.11,0l-7.12.82c-11.36,1.33-15.31,1.91-18.71,1.25a16,16,0,0,1-2.45-.7,20.57,20.57,0,0,1-7.62-4.29,14.58,14.58,0,0,1-3.46-4.34,17.72,17.72,0,0,1-1.52-4.54,34,34,0,0,1-.41-5.89c-.12-4.22,0-7.2,0-8.2s.08-2.28.19-4c.19-2.92.43-4.48,1-9,1.26-9.67,1-9.33,1.62-12.53a28.3,28.3,0,0,0,.74-4.64,23.91,23.91,0,0,0,0-3.15,27.28,27.28,0,0,0-1.22-6.58c-.74-2.36-1.33-3.06-4.13-8.29a70.23,70.23,0,0,1-3.48-6.8,22,22,0,0,1-.57-11c1.76-7.68,8.09-11.29,7.46-12.35-.38-.62-2.74.42-4.34,1.62-2.39,1.81-3.5,4.29-4.56,6.73a20.15,20.15,0,0,0-1.86,6,20.69,20.69,0,0,0,1,8.85,35.11,35.11,0,0,0,3,7c2.27,4.43,3.1,4.73,4.37,8.17a26.69,26.69,0,0,1,1.43,5.84,20.22,20.22,0,0,1,.12,4,24.49,24.49,0,0,1-.57,3.12c-.72,4-.58,4.88-1.34,10.13-.43,3-.55,3.18-.76,5.22-.08.74-.15,1.54-.38,5.56s-.34,6-.36,6.69c0,2.3-.39,4.62-.26,6.92.09,1.42.31,3.38-.53,4a2.92,2.92,0,0,1-.84.24,18,18,0,0,1-2.12.3l-2,.18-1.79.41c-.35.08-1,.22-1.79.38l-3,.58c-3.86.72-7.87,1.54-11.09,2.08a126.44,126.44,0,0,1-13.34,1.46c-3.79.24-8.28.38-13.36.22h0c-5.32,0-12.34.34-12.34.34a62.14,62.14,0,0,0-10.81-.24c-2.05.14-6,.52-6.94-1.48-.17-.34-.31-.82-.91-2.38-.22-.58-.52-1.26-1-2.13a39.46,39.46,0,0,0-2.1-3.78,23.57,23.57,0,0,0-5.73-5.34c-7-4.52-14.39-3.26-23.72-1.56-7.33,1.34-12,3.18-22.38,4.12-3.58.32-6.88.46-7.16-.68s3.36-2.64,9.55-7.67a124.66,124.66,0,0,0,12.54-12.12c.25-.28,1.51-1.81,3.47-3.87a36.69,36.69,0,0,0,4.75-6.26,26.23,26.23,0,0,0,2.4-4.66c1.86-5.07,1.1-10,.57-13.45a36,36,0,0,0-2.47-8.79c-2.34-5.38-5.78-9.35-6.16-9s5.23,7,6.39,17.52a27.8,27.8,0,0,1-1.14,12.47,23.3,23.3,0,0,1-5.71,9,53.14,53.14,0,0,1-4.34,5,55.16,55.16,0,0,1-5,4.51c-8.16,6.8-7.18,6.36-10,8.48,0,0-.83.62-8.23,5.59,0,0-1.84,3.42-1.14,5.3.5,1.32,2.16,1.66,3.21,1.86a53.13,53.13,0,0,0,17.57-.26c3.12-.58,2.26-.48,6.63-1.32,10.31-2,14.06-2.3,15.3-2.38,7.11-.54,9.64.26,11.42,1.06a10.55,10.55,0,0,1,5.25,4.24c2.49,4.25,1.24,9.55.91,10.89a14.93,14.93,0,0,1-2.29,5.3c-2.51,3.59-6,4.61-9.37,5.59a37.94,37.94,0,0,1-8,1.06c-5.22.34-9.16.28-10.06.26-4.94-.08-9.22.12-17.81.54-5.89.28-10.78.72-20.56,1.6-12.67,1.14-15.78,1.64-19.4-1.06a17.94,17.94,0,0,1-6.62-10.89c-1-6.08,3.42-10.32,2.51-18a8.18,8.18,0,0,0-1.7-4.5c-.45-.5-1.33-1.28-4.81-2a33.12,33.12,0,0,0-6.28-.66,58.3,58.3,0,0,0-7,.26,62.77,62.77,0,0,0-9.93,1.86c-6.82,1.84-10.88,3.84-15.31,5.58a88.52,88.52,0,0,1-25.11,5.88,84.5,84.5,0,0,1-18.27-.84c-8.38-1-14.7-1.88-22.6-5a55.59,55.59,0,0,1-22.82-15.67,72.41,72.41,0,0,1-9.37-14.33,89.25,89.25,0,0,1-6.63-16.19,59.62,59.62,0,0,1-2.65-15.61Z"
              transform="translate(-1.65 -30.08)"/>
    </g>
</svg>